<svg xmlns="http://www.w3.org/2000/svg" xmlns:xlink="http://www.w3.org/1999/xlink" xmlns:lucid="lucid" width="379" height="1108"><g transform="translate(-740 67)" lucid:page-tab-id="0_0"><path d="M0-1200h3360v2560H0z" fill="#fff"/><path d="M960 40c22.1 0 40 17.9 40 40s-17.9 40-40 40H840c-22.1 0-40-17.9-40-40s17.9-40 40-40z" stroke="#000" stroke-opacity="0" fill="#ff741d"/><use xlink:href="#a" transform="matrix(1,0,0,1,805.0000000000005,45) translate(74.05 38.6)"/><path d="M900 120.5v43.12" stroke="#333" fill="none"/><path d="M900.48 120.5h-.96v-.5h.96z" stroke="#333" stroke-width=".05" fill="#333"/><path d="M900 178.38l-4.63-14.26h9.26z" stroke="#333" fill="#333"/><path d="M900 300.5v43.12" stroke="#333" fill="none"/><path d="M900.48 300.5h-.96v-.5h.96z" stroke="#333" stroke-width=".05" fill="#333"/><path d="M900 358.38l-4.63-14.26h9.26z" stroke="#333" fill="#333"/><path d="M960 920c22.1 0 40 17.9 40 40s-17.9 40-40 40H840c-22.1 0-40-17.9-40-40s17.9-40 40-40z" stroke="#000" stroke-opacity="0" stroke-width="2" fill="#ff8839"/><use xlink:href="#b" transform="matrix(1,0,0,1,805.0000000000005,925) translate(82.55 38.6)"/><path d="M900 480.5V543.62" stroke="#333" fill="none"/><path d="M900.48 480.5h-.96v-.5h.96z" stroke="#333" stroke-width=".05" fill="#333"/><path d="M900 558.38l-4.63-14.26h9.26z" stroke="#333" fill="#333"/><path d="M900 860.5v43.12" stroke="#333" fill="none"/><path d="M900.48 860.5h-.96v-.5h.96z" stroke="#333" stroke-width=".05" fill="#333"/><path d="M900 918.38l-4.63-14.26h9.26z" stroke="#333" fill="#333"/><path d="M829.94 187.73A10.4 10.4 0 0 1 840 180h152a6.15 6.15 0 0 1 5.94 7.73l-27.88 104.54A10.4 10.4 0 0 1 960 300H808a6.15 6.15 0 0 1-5.94-7.73z" stroke="#000" stroke-opacity="0" fill="#ff741d"/><use xlink:href="#c" transform="matrix(1,0,0,1,805.0000000000005,185) translate(57.525 58.6)"/><use xlink:href="#d" transform="matrix(1,0,0,1,805.0000000000005,185) translate(122.475 58.6)"/><path d="M829.94 367.73A10.4 10.4 0 0 1 840 360h152a6.15 6.15 0 0 1 5.94 7.73l-27.88 104.54A10.4 10.4 0 0 1 960 480H808a6.15 6.15 0 0 1-5.94-7.73z" stroke="#000" stroke-opacity="0" fill="#ff741d"/><use xlink:href="#e" transform="matrix(1,0,0,1,805,365) translate(69.525 58.6)"/><use xlink:href="#d" transform="matrix(1,0,0,1,805,365) translate(110.47500000000001 58.6)"/><path d="M809.94 747.73A10.4 10.4 0 0 1 820 740h192a6.15 6.15 0 0 1 5.94 7.73l-27.88 104.54A10.4 10.4 0 0 1 980 860H788a6.15 6.15 0 0 1-5.94-7.73z" stroke="#000" stroke-opacity="0" fill="#ff741d"/><use xlink:href="#f" transform="matrix(1,0,0,1,785.0000000000007,745) translate(58.17499999999999 58.6)"/><use xlink:href="#g" transform="matrix(1,0,0,1,785.0000000000007,745) translate(127.875 58.6)"/><path d="M848.24 567.06A13.33 13.33 0 0 1 860 560h80a13.33 13.33 0 0 1 11.76 7.06l24.48 45.88a15 15 0 0 1 0 14.12l-24.48 45.88A13.33 13.33 0 0 1 940 680h-80a13.33 13.33 0 0 1-11.76-7.06l-24.48-45.88a15 15 0 0 1 0-14.12z" stroke="#000" stroke-opacity="0" fill="#ff741d"/><use xlink:href="#h" transform="matrix(1,0,0,1,825.0000000000002,565) translate(17.049999999999997 37)"/><use xlink:href="#i" transform="matrix(1,0,0,1,825.0000000000002,565) translate(60 37)"/><use xlink:href="#j" transform="matrix(1,0,0,1,825.0000000000002,565) translate(68.95 37)"/><use xlink:href="#k" transform="matrix(1,0,0,1,825.0000000000002,565) translate(122.95 37)"/><use xlink:href="#l" transform="matrix(1,0,0,1,825.0000000000002,565) translate(15.524999999999999 58.6)"/><use xlink:href="#m" transform="matrix(1,0,0,1,825.0000000000002,565) translate(64.525 58.6)"/><use xlink:href="#n" transform="matrix(1,0,0,1,825.0000000000002,565) translate(84.525 58.6)"/><use xlink:href="#o" transform="matrix(1,0,0,1,825.0000000000002,565) translate(8.575000000000003 80.20000000000002)"/><use xlink:href="#p" transform="matrix(1,0,0,1,825.0000000000002,565) translate(57.525000000000006 80.20000000000002)"/><use xlink:href="#q" transform="matrix(1,0,0,1,825.0000000000002,565) translate(73.025 80.20000000000002)"/><use xlink:href="#r" transform="matrix(1,0,0,1,825.0000000000002,565) translate(121.97500000000001 80.20000000000002)"/><use xlink:href="#s" transform="matrix(1,0,0,1,825.0000000000002,565) translate(137.47500000000002 80.20000000000002)"/><path d="M900 680.5v43.12" stroke="#333" fill="none"/><path d="M900.48 680.5h-.96v-.5h.96z" stroke="#333" stroke-width=".05" fill="#333"/><path d="M900 738.38l-4.63-14.26h9.26z" stroke="#333" fill="#333"/><defs><path fill="#fff" d="M14 0l48-248h34L48 0H14" id="t"/><path fill="#fff" d="M67-158c22-48 132-52 116 29L158 0h-32l25-140c3-38-53-32-70-12C52-117 51-52 38 0H6l36-190h30" id="u"/><path fill="#fff" d="M50-231l6-30h32l-6 30H50zM6 0l37-190h31L37 0H6" id="v"/><path fill="#fff" d="M44-68c0 29 11 47 38 47 30 0 42-19 51-41l28 9C148-21 126 4 82 4 31 4 10-29 12-85c3-77 74-140 146-93 12 8 15 23 18 40l-31 5c-1-22-13-36-36-36-52 0-65 49-65 101" id="w"/><path fill="#fff" d="M30-147c31-64 166-65 159 27C183-49 158 1 86 4 9 8 1-88 30-147zM88-20c53 0 68-48 68-100 0-31-11-51-44-50-52 1-68 46-68 97 0 32 13 53 44 53" id="x"/><g id="a"><use transform="matrix(0.05,0,0,0.05,0,0)" xlink:href="#t"/><use transform="matrix(0.05,0,0,0.05,5,0)" xlink:href="#u"/><use transform="matrix(0.05,0,0,0.05,15,0)" xlink:href="#v"/><use transform="matrix(0.05,0,0,0.05,18.95,0)" xlink:href="#w"/><use transform="matrix(0.05,0,0,0.05,27.950000000000003,0)" xlink:href="#v"/><use transform="matrix(0.05,0,0,0.05,31.899999999999995,0)" xlink:href="#x"/></g><path fill="#fff" d="M87-220l-18 92h140l-5 28H64L45 0H11l48-248h178l-5 28H87" id="y"/><g id="b"><use transform="matrix(0.05,0,0,0.05,0,0)" xlink:href="#y"/><use transform="matrix(0.05,0,0,0.05,10.950000000000001,0)" xlink:href="#v"/><use transform="matrix(0.05,0,0,0.05,14.9,0)" xlink:href="#u"/></g><path fill="#fff" d="M103-194c29 0 47 14 56 36 2-11 5-23 8-32h30L160-5C157 61 82 97 21 62 9 55 4 45 1 30l28-7c7 42 83 31 92-3 4-16 9-38 13-55-13 20-29 36-62 36-40 0-60-25-60-64 0-71 23-131 91-131zm4 24c-53 0-58 54-61 104-2 27 10 44 36 44 49 0 65-50 67-102 1-29-15-46-42-46" id="z"/><path fill="#fff" d="M66-151c12-25 30-51 66-40l-6 26C45-176 58-65 38 0H6l36-190h30" id="A"/><path fill="#fff" d="M111-194c62-3 86 47 72 106H45c-7 38 6 69 45 68 27-1 43-14 53-32l24 11C152-15 129 4 87 4 38 3 12-23 12-71c0-70 32-119 99-123zm44 81c14-66-71-72-95-28-4 8-8 17-11 28h106" id="B"/><path fill="#fff" d="M55-144c13 50 104 24 104 88C159 21 15 23 1-39l26-10c6 40 102 42 102-4-13-50-104-23-104-87 0-71 143-71 148-8l-29 4c-5-35-85-37-89 0" id="C"/><g id="c"><use transform="matrix(0.05,0,0,0.05,0,0)" xlink:href="#t"/><use transform="matrix(0.05,0,0,0.05,5,0)" xlink:href="#u"/><use transform="matrix(0.05,0,0,0.05,15,0)" xlink:href="#z"/><use transform="matrix(0.05,0,0,0.05,25,0)" xlink:href="#A"/><use transform="matrix(0.05,0,0,0.05,30.950000000000003,0)" xlink:href="#B"/><use transform="matrix(0.05,0,0,0.05,40.95,0)" xlink:href="#C"/><use transform="matrix(0.05,0,0,0.05,49.95,0)" xlink:href="#B"/></g><use transform="matrix(0.05,0,0,0.05,0,0)" xlink:href="#u" id="d"/><path fill="#fff" d="M11 0l48-248h34L50-27h125l-5 27H11" id="D"/><g id="e"><use transform="matrix(0.05,0,0,0.05,0,0)" xlink:href="#D"/><use transform="matrix(0.05,0,0,0.05,10,0)" xlink:href="#B"/><use transform="matrix(0.05,0,0,0.05,20,0)" xlink:href="#B"/><use transform="matrix(0.05,0,0,0.05,30,0)" xlink:href="#A"/></g><path fill="#fff" d="M248-111c6-24 9-61-24-58-72 9-57 108-77 169h-31l26-142c3-37-50-30-64-10C52-115 50-51 37 0H6l36-190h30c-1 10-6 24-4 32 13-43 101-52 105 5 13-22 29-41 61-41 90 0 28 129 23 194h-31" id="E"/><path fill="#fff" d="M67-162c32-53 139-36 121 50C175-51 163 2 97 4 68 4 52-11 42-31 38 6 28 39 22 75H-9l50-265h29c-1 10 0 20-3 28zm89 36c0-26-10-43-35-43-54 0-67 50-69 103-1 29 14 45 42 46 53 0 62-58 62-106" id="F"/><g id="f"><use transform="matrix(0.05,0,0,0.05,0,0)" xlink:href="#t"/><use transform="matrix(0.05,0,0,0.05,5,0)" xlink:href="#E"/><use transform="matrix(0.05,0,0,0.05,19.950000000000003,0)" xlink:href="#F"/><use transform="matrix(0.05,0,0,0.05,29.950000000000003,0)" xlink:href="#A"/><use transform="matrix(0.05,0,0,0.05,35.900000000000006,0)" xlink:href="#v"/><use transform="matrix(0.05,0,0,0.05,39.85000000000001,0)" xlink:href="#E"/><use transform="matrix(0.05,0,0,0.05,54.80000000000001,0)" xlink:href="#v"/><use transform="matrix(0.05,0,0,0.05,58.750000000000014,0)" xlink:href="#A"/></g><path fill="#fff" d="M67 3c-93-2-31-127-26-193h32L48-50c-3 39 53 32 70 12 30-34 30-101 43-152h32L157 0h-30c1-10 6-24 4-33-14 20-29 37-64 36" id="G"/><path fill="#fff" d="M165-48c-4 18 1 34 23 27l-3 20c-29 8-62 0-52-35h-2C116-14 99 4 63 4 30 4 8-16 8-49c0-68 71-67 138-67 10-26 0-56-31-54-26 1-42 9-47 31l-32-5c8-67 160-71 144 15-5 28-9 54-15 81zM42-50c3 52 80 24 89-6 7-12 7-24 11-38-47 1-103-4-100 44" id="H"/><g id="g"><use transform="matrix(0.05,0,0,0.05,0,0)" xlink:href="#C"/><use transform="matrix(0.05,0,0,0.05,9,0)" xlink:href="#G"/><use transform="matrix(0.05,0,0,0.05,19,0)" xlink:href="#E"/><use transform="matrix(0.05,0,0,0.05,33.95,0)" xlink:href="#H"/></g><path fill="#fff" d="M238-179c0 84-86 86-175 82L45 0H11l48-248c82 0 179-12 179 69zm-34 1c0-53-64-42-116-43l-19 98c63 0 135 9 135-55" id="I"/><g id="h"><use transform="matrix(0.05,0,0,0.05,0,0)" xlink:href="#I"/><use transform="matrix(0.05,0,0,0.05,12,0)" xlink:href="#H"/><use transform="matrix(0.05,0,0,0.05,22,0)" xlink:href="#A"/><use transform="matrix(0.05,0,0,0.05,27.950000000000003,0)" xlink:href="#H"/></g><use transform="matrix(0.05,0,0,0.05,0,0)" xlink:href="#v" id="i"/><path fill="#fff" d="M133-28C103 26-5 8 13-77c13-62 24-115 90-117 29-1 46 15 56 35l19-102h32L160 0h-30zM45-64c-2 27 10 43 35 43 54-1 69-50 69-103 0-29-15-46-42-46-53-1-58 58-62 106" id="J"/><g id="j"><use transform="matrix(0.05,0,0,0.05,0,0)" xlink:href="#J"/><use transform="matrix(0.05,0,0,0.05,10,0)" xlink:href="#B"/><use transform="matrix(0.05,0,0,0.05,20,0)" xlink:href="#C"/><use transform="matrix(0.05,0,0,0.05,29,0)" xlink:href="#J"/><use transform="matrix(0.05,0,0,0.05,39,0)" xlink:href="#B"/></g><path fill="#fff" d="M9 0l6-27h63l36-188-63 39 6-31 66-41h29L110-27h60l-5 27H9" id="K"/><use transform="matrix(0.05,0,0,0.05,0,0)" xlink:href="#K" id="k"/><path fill="#fff" d="M67-158c15-20 31-36 64-36 94 0 33 127 27 194h-32l25-140c3-38-53-32-70-12C52-117 51-51 37 0H6l51-261h31" id="L"/><path fill="#fff" d="M51-54c-9 22 5 41 31 30L79-1C43 14 10-4 19-52l22-115H19l5-23h22l19-43h21l-9 43h35l-4 23H73" id="M"/><g id="l"><use transform="matrix(0.05,0,0,0.05,0,0)" xlink:href="#L"/><use transform="matrix(0.05,0,0,0.05,10,0)" xlink:href="#H"/><use transform="matrix(0.05,0,0,0.05,20,0)" xlink:href="#C"/><use transform="matrix(0.05,0,0,0.05,29,0)" xlink:href="#M"/><use transform="matrix(0.05,0,0,0.05,34,0)" xlink:href="#H"/></g><path fill="#fff" d="M58-38C53-5 46 26 28 46H7C19 32 27 18 32 0H17l7-38h34" id="N"/><g id="m"><use transform="matrix(0.05,0,0,0.05,0,0)" xlink:href="#u"/><use transform="matrix(0.05,0,0,0.05,10,0)" xlink:href="#N"/></g><path fill="#fff" d="M44-154l7-36h35l-8 36H44zM14 0l7-36h35L49 0H14" id="O"/><g id="n"><use transform="matrix(0.05,0,0,0.05,0,0)" xlink:href="#L"/><use transform="matrix(0.05,0,0,0.05,10,0)" xlink:href="#H"/><use transform="matrix(0.05,0,0,0.05,20,0)" xlink:href="#w"/><use transform="matrix(0.05,0,0,0.05,29,0)" xlink:href="#B"/><use transform="matrix(0.05,0,0,0.05,39,0)" xlink:href="#A"/><use transform="matrix(0.05,0,0,0.05,44.95,0)" xlink:href="#O"/></g><g id="o"><use transform="matrix(0.05,0,0,0.05,0,0)" xlink:href="#C"/><use transform="matrix(0.05,0,0,0.05,9,0)" xlink:href="#G"/><use transform="matrix(0.05,0,0,0.05,19,0)" xlink:href="#E"/><use transform="matrix(0.05,0,0,0.05,33.95,0)" xlink:href="#H"/></g><path fill="#fff" d="M23-150v-26h175v26H23zm0 90v-26h175v26H23" id="P"/><use transform="matrix(0.05,0,0,0.05,0,0)" xlink:href="#P" id="p"/><g id="q"><use transform="matrix(0.05,0,0,0.05,0,0)" xlink:href="#C"/><use transform="matrix(0.05,0,0,0.05,9,0)" xlink:href="#G"/><use transform="matrix(0.05,0,0,0.05,19,0)" xlink:href="#E"/><use transform="matrix(0.05,0,0,0.05,33.95,0)" xlink:href="#H"/></g><path fill="#fff" d="M123-107v75H97v-75H23v-26h74v-75h26v75h75v26h-75" id="Q"/><use transform="matrix(0.05,0,0,0.05,0,0)" xlink:href="#Q" id="r"/><use transform="matrix(0.05,0,0,0.05,0,0)" xlink:href="#v" id="s"/></defs></g></svg>